<?xml version="1.0" standalone="no"?>
<!DOCTYPE svg PUBLIC "-//W3C//DTD SVG 20010904//EN"
 "http://www.w3.org/TR/2001/REC-SVG-20010904/DTD/svg10.dtd">
<svg version="1.0" xmlns="http://www.w3.org/2000/svg"
 width="705.000000pt" height="705.000000pt" viewBox="0 0 705.000000 705.000000"
 preserveAspectRatio="xMidYMid meet">
<metadata>
Created by potrace 1.11, written by Peter Selinger 2001-2013
</metadata>
<g transform="translate(0.000000,705.000000) scale(0.100000,-0.100000)"
fill="#000000" stroke="none">
<path d="M3480 6901 c-66 -10 -115 -37 -164 -92 -49 -54 -56 -77 -51 -166 4
-93 54 -170 137 -210 l36 -18 -23 -80 c-29 -104 -55 -216 -55 -237 0 -16 -43
-17 -622 -20 l-623 -3 -58 -30 c-74 -37 -148 -117 -179 -193 l-23 -57 0 -945
0 -945 23 -57 c28 -70 117 -165 187 -199 l50 -24 535 -5 535 -5 3 -77 3 -77
-288 0 c-315 1 -349 -4 -400 -60 -56 -62 -68 -99 -73 -230 -3 -87 -9 -126 -17
-129 -10 -3 -13 22 -13 103 l0 108 -41 -7 c-23 -4 -55 -14 -72 -23 -41 -21
-137 -112 -137 -130 0 -8 21 -44 47 -80 50 -71 51 -64 -7 -103 -12 -8 -33 -23
-45 -32 -13 -10 -27 -18 -32 -18 -4 0 -28 -14 -53 -30 -25 -16 -49 -30 -55
-30 -10 0 -71 90 -104 152 -35 66 -64 114 -97 159 -57 79 -58 88 -16 176 36
76 37 81 37 188 -1 93 -4 118 -24 162 l-23 52 -41 -21 c-40 -20 -42 -20 -74
-3 -18 10 -33 21 -33 24 0 3 16 28 35 56 52 73 66 129 53 212 -6 38 -16 80
-24 94 -7 15 -11 29 -8 31 8 9 -109 108 -170 145 -81 47 -158 60 -225 38 -71
-23 -95 -56 -86 -118 6 -49 21 -85 40 -99 7 -5 7 -8 0 -8 -6 0 -5 -3 1 -8 6
-4 24 -27 40 -51 16 -24 37 -55 47 -70 9 -14 16 -34 13 -43 -2 -10 1 -16 7
-15 15 3 36 -82 27 -112 -3 -14 -13 -28 -21 -32 -7 -4 -41 -20 -74 -35 -33
-15 -68 -36 -79 -45 -14 -14 -24 -16 -44 -8 -34 13 -82 64 -82 88 0 10 -7 24
-15 31 -8 6 -14 15 -13 18 2 7 -15 47 -48 117 -38 81 -80 134 -116 147 -17 7
-133 -44 -123 -54 3 -2 -4 -13 -15 -23 -11 -10 -20 -23 -20 -28 0 -6 -7 -18
-15 -28 -9 -9 -21 -39 -28 -65 -15 -59 0 -178 32 -249 11 -25 20 -48 20 -51 0
-11 86 -80 135 -108 43 -24 62 -29 124 -29 l72 0 0 -42 c0 -39 -3 -43 -40 -60
-22 -10 -40 -22 -40 -27 0 -14 50 -77 90 -115 77 -72 233 -128 333 -121 38 3
42 0 68 -42 16 -25 35 -58 43 -75 23 -45 62 -109 121 -200 29 -44 60 -96 69
-115 30 -62 120 -184 146 -197 53 -26 61 -27 135 -20 11 1 26 8 34 15 31 30
119 92 161 114 25 13 87 52 139 86 51 35 95 61 97 60 2 -2 4 -149 4 -326 1
-177 5 -322 10 -322 5 0 11 -8 15 -19 9 -29 72 -90 113 -108 28 -12 70 -16
177 -17 l140 -1 0 -45 0 -45 -142 0 c-77 0 -144 -3 -148 -6 -9 -9 13 -161 35
-239 23 -84 58 -160 109 -234 22 -33 37 -64 34 -69 -3 -6 -2 -7 4 -4 6 4 21
-5 33 -18 13 -14 20 -25 15 -25 -5 0 6 -11 25 -25 l34 -25 622 0 622 0 47 53
c134 147 218 334 232 509 l6 78 -59 1 c-32 1 -68 3 -79 4 -11 1 -45 2 -76 3
l-57 2 0 39 -1 38 134 7 c183 9 244 38 291 141 23 49 24 56 24 353 l0 304 33
-21 c17 -12 62 -37 98 -57 37 -19 75 -43 85 -52 26 -24 82 -58 127 -78 20 -9
37 -19 37 -23 0 -4 21 -18 46 -30 62 -31 137 -26 178 12 16 15 33 24 38 21 4
-3 7 -2 6 3 -4 16 25 89 53 131 16 24 29 46 29 49 0 3 10 20 23 37 13 17 27
40 30 50 4 10 51 90 103 177 l96 159 82 0 c81 0 179 24 212 51 7 6 19 7 25 3
7 -4 9 -3 6 3 -3 5 8 20 26 33 18 13 36 30 40 37 5 7 13 11 18 7 5 -3 8 -2 7
3 -1 4 11 27 26 51 16 23 27 44 25 46 -2 2 -23 13 -46 25 -40 20 -43 24 -43
61 l0 40 68 1 c37 1 80 3 95 5 47 5 119 65 172 144 49 73 50 75 53 161 3 59
-1 105 -12 141 -28 98 -105 171 -179 170 -53 -1 -72 -26 -133 -167 -26 -60
-57 -123 -67 -140 -31 -46 -79 -95 -95 -95 -7 0 -33 14 -58 31 -25 17 -69 41
-99 54 -38 17 -56 32 -60 48 -7 26 24 125 52 166 10 14 20 31 23 36 13 28 105
170 112 173 4 2 4 10 1 18 -3 8 0 14 5 14 20 0 -7 64 -38 93 -27 24 -38 27
-98 27 -64 0 -192 -33 -200 -52 -2 -5 -8 -8 -14 -8 -6 0 -28 -14 -50 -32 -28
-22 -42 -28 -47 -19 -5 7 -8 -1 -8 -17 0 -16 -9 -42 -20 -58 -10 -16 -28 -51
-37 -77 -34 -92 1 -249 66 -295 26 -19 23 -29 -14 -48 -31 -16 -34 -16 -76 6
-51 27 -52 26 -79 -60 -34 -107 -15 -267 43 -367 15 -27 20 -44 14 -48 -6 -4
-24 -32 -39 -63 -37 -75 -201 -342 -209 -342 -4 0 -36 20 -72 45 -36 24 -89
57 -117 72 -29 15 -53 32 -53 38 0 6 20 39 45 73 25 34 45 69 45 77 0 30 -93
111 -153 134 -98 36 -97 37 -97 -80 0 -76 -3 -100 -12 -97 -9 3 -15 41 -18
124 -7 161 -35 216 -137 265 -47 23 -54 23 -330 22 l-283 -1 0 79 0 79 515 0
c571 0 556 -2 657 68 25 17 49 28 54 24 5 -4 6 -3 2 2 -4 5 2 17 14 27 11 11
18 19 14 19 -3 0 5 17 18 38 54 81 54 90 52 1077 l-2 910 -22 56 c-42 106
-116 180 -221 219 -49 19 -80 20 -655 20 l-604 0 -11 33 c-6 17 -22 84 -36
147 -14 63 -27 125 -30 137 -4 17 1 23 25 28 83 18 157 140 151 245 -3 44 -48
147 -74 165 -11 8 -16 18 -12 26 5 7 4 10 -1 6 -5 -3 -26 3 -46 13 -47 23 -92
29 -148 21z m-466 -1586 c37 -13 76 -31 85 -39 10 -9 22 -16 28 -16 18 0 116
-113 145 -166 155 -286 -20 -638 -345 -694 -146 -26 -294 25 -406 137 -155
157 -184 367 -79 566 52 98 184 200 293 227 17 5 71 8 120 9 71 0 104 -4 159
-24z m1307 9 c199 -58 340 -246 339 -454 -1 -196 -109 -359 -290 -439 -278
-122 -599 59 -652 367 -40 238 128 484 367 535 50 11 185 6 236 -9z"/>
<path d="M2790 5118 c-19 -5 -43 -10 -52 -11 -9 -1 -14 -6 -11 -11 4 -5 -1 -7
-11 -3 -9 4 -15 3 -12 -1 2 -4 -10 -22 -29 -40 -45 -44 -68 -96 -73 -162 -8
-109 36 -194 129 -245 109 -60 259 -30 329 67 50 69 56 111 38 265 -2 11 -6
19 -9 17 -4 -2 -15 8 -24 23 -28 42 -66 71 -123 93 -57 21 -96 24 -152 8z"/>
<path d="M4100 5115 c-60 -19 -119 -71 -150 -131 -31 -61 -35 -170 -7 -221 47
-88 122 -141 211 -150 100 -10 193 38 250 131 61 98 33 248 -61 325 -41 34
-118 61 -167 60 -17 0 -51 -7 -76 -14z"/>
<path d="M2065 2371 c-3 -5 -2 -12 3 -15 5 -3 9 1 9 9 0 17 -3 19 -12 6z"/>
<path d="M2575 975 c-43 -42 -29 -105 26 -124 41 -14 1776 -16 1813 -1 59 22
56 102 -4 132 -32 17 -99 18 -923 18 l-888 0 -24 -25z"/>
<path d="M2877 666 c-43 -29 -49 -75 -13 -111 l25 -25 627 0 c617 0 626 0 655
21 22 15 29 28 29 53 0 32 -29 75 -53 77 -7 0 -288 2 -625 4 l-613 3 -32 -22z"/>
<path d="M3244 370 c-68 -7 -86 -23 -82 -73 2 -30 10 -45 31 -61 27 -20 40
-21 300 -21 205 -1 279 2 299 12 49 24 50 98 1 130 -24 16 -55 18 -263 18
-129 0 -258 -2 -286 -5z"/>
</g>
</svg>
